#N canvas 530 93 835 674 16;
#X obj 193 552 *~;
#X obj 293 420 vsl 15 70 0 1 0 0 empty empty vol 0 -9 0 10 -262144
-1 -1 6900 1;
#X msg 32 51 \; pd dsp \$1;
#X obj 32 26 tgl 15 0 empty empty empty 17 7 0 10 -262144 -1 -1 0 1
;
#X obj 176 448 +~;
#X obj 290 543 line~;
#X obj 181 33 loadbang;
#N canvas 143 403 282 364 receive_dist 0;
#X obj 30 148 comport;
#X msg 24 13 devices;
#X obj 19 182 serial_print;
#X msg 56 81 open 2;
#X obj 155 89 / 60;
#X obj 149 207 s pos-r;
#X obj 146 169 line;
#X msg 147 142 \$1 300;
#X obj 145 115 expr 1-$f1;
#X obj 16 254 sel 0;
#X msg 9 292 0.01;
#X msg 46 51 open 32;
#X msg 66 115 close;
#X obj 189 272 print;
#X obj 22 223 unpack f f;
#X obj 118 277 s D1;
#X obj 60 304 s D0;
#X obj 154 60 r D0;
#X obj 163 25 r connect;
#X connect 0 0 2 0;
#X connect 1 0 0 0;
#X connect 2 0 14 0;
#X connect 3 0 0 0;
#X connect 4 0 8 0;
#X connect 6 0 5 0;
#X connect 7 0 6 0;
#X connect 8 0 7 0;
#X connect 9 0 10 0;
#X connect 9 1 16 0;
#X connect 10 0 5 0;
#X connect 11 0 0 0;
#X connect 12 0 0 0;
#X connect 14 0 9 0;
#X connect 14 1 15 0;
#X connect 17 0 4 0;
#X connect 18 0 3 0;
#X restore 36 130 pd receive_dist;
#X obj 87 474 env~;
#X obj 80 542 vu 15 120 empty empty -1 -8 0 10 -66577 -1 1 0;
#X obj 76 505 - 100;
#X floatatom 356 450 5 0 0 0 - - -;
#X obj 634 50 vsl 15 250 0.01 1 1 0 empty pos-r pos_da_mao 0 -9 0 10
-262144 -1 -1 19946 1;
#X obj 634 317 s pos;
#X floatatom 667 276 12 0 0 0 - - -;
#X floatatom 695 80 5 0 0 0 - - -;
#X floatatom 389 320 12 0 0 0 - - -;
#N canvas 619 107 556 660 rockafella 0;
#X obj 13 589 hip~ 5;
#X floatatom 6 64 4 0 1000 0 - - -;
#X obj 14 536 *~;
#X floatatom 7 153 0 0 200 0 - - -;
#X obj 14 438 +~;
#X obj 13 390 samphold~;
#X obj 14 414 *~;
#X obj 172 415 r~ phase;
#X obj 101 391 r~ phase;
#X obj 49 415 r~ phase;
#X obj 8 120 s chunk-size;
#X text 124 112 chunk size;
#X text 121 126 in seconds;
#X obj 172 439 -~ 0.5;
#X obj 172 463 *~ 0.5;
#X obj 172 486 cos~;
#N canvas 214 315 660 275 table 0;
#N canvas 0 50 450 300 (subpatch) 0;
#X array table23 336000 float 0;
#X coords 0 1.02 335999 -1.02 200 130 1;
#X restore 442 61 graph;
#X text 444 195 --- 44103 samples ---;
#X obj 41 148 loadbang;
#X obj 45 44 adc~ 1;
#X obj 45 69 hip~ 5;
#X msg 60 91 bang;
#X obj 44 244 soundfiler;
#X text 101 91 <-- record;
#X text 134 155 v-- re-read original table;
#X obj 45 118 tabwrite~ table23;
#X msg 44 217 read -resize beat_adao.wav table23;
#X msg 41 183 read -resize extra4.wav table23;
#X connect 2 0 11 0;
#X connect 3 0 4 0;
#X connect 4 0 9 0;
#X connect 5 0 9 0;
#X connect 10 0 6 0;
#X connect 11 0 6 0;
#X restore 405 214 pd table;
#X obj 7 293 s~ read-pt;
#X obj 52 438 r~ read-pt;
#X obj 13 565 +~;
#X obj 8 97 * 0.001;
#X obj 7 245 phasor~;
#X obj 14 462 *~ 44100;
#X obj 14 512 tabread4~ table23;
#X obj 13 365 r chunk-size;
#X obj 13 488 +~ 1;
#X obj 15 199 s precession;
#X obj 7 176 * 0.01;
#X obj 258 515 *~;
#X obj 258 417 +~;
#X obj 257 369 samphold~;
#X obj 258 393 *~;
#X obj 423 448 -~ 0.5;
#X obj 423 472 *~ 0.5;
#X obj 437 497 cos~;
#X obj 296 417 r~ read-pt;
#X obj 258 441 *~ 44100;
#X obj 258 491 tabread4~ table23;
#X obj 257 344 r chunk-size;
#X obj 257 467 +~ 1;
#X obj 345 370 r~ phase2;
#X obj 293 394 r~ phase2;
#X obj 423 424 r~ phase2;
#X text 37 153 <-- precession \, percent;
#X obj 10 12 loadbang;
#X msg 10 34 25;
#X floatatom 139 222 4 0 900 0 - - -;
#X obj 139 242 * 0.001;
#X msg 139 200 900;
#X text 48 77 <-- chunk size (msec);
#X obj 139 267 t b f;
#X obj 139 176 loadbang;
#X text 182 218 <-- loop length;
#X text 223 233 (msec);
#X obj 7 269 *~;
#X obj 7 221 /;
#X obj 108 1 r pos;
#N canvas 443 526 450 300 transp 0;
#X obj 102 193 s~ phase;
#X floatatom 102 25 0 0 0 0 - - -;
#X obj 114 62 r chunk-size;
#X obj 114 87 t b f;
#X obj 102 167 phasor~;
#X obj 189 186 +~ 0.5;
#X obj 190 212 wrap~;
#X obj 190 237 s~ phase2;
#X text 136 26 <-- transposition \, halftones/10;
#X floatatom 110 144 5 0 0 0 - - -;
#X obj 227 86 t b f;
#X obj 227 61 r precession;
#X obj 102 119 expr (pow(2 \, $f1/120)-$f3)/$f2;
#X msg 57 42 20;
#X obj 10 91 loadbang;
#X connect 1 0 12 0;
#X connect 2 0 3 0;
#X connect 3 0 12 0;
#X connect 3 1 12 1;
#X connect 4 0 0 0;
#X connect 4 0 5 0;
#X connect 5 0 6 0;
#X connect 6 0 7 0;
#X connect 10 0 12 0;
#X connect 10 1 12 2;
#X connect 11 0 10 0;
#X connect 12 0 4 0;
#X connect 12 0 9 0;
#X connect 13 0 1 0;
#X connect 14 0 13 0;
#X restore 398 140 pd transp;
#X obj 316 -66 r pos;
#X obj 20 631 outlet~;
#X obj 179 23 / 3;
#X floatatom 304 127 5 0 0 0 - - -;
#X obj 327 27 max 0;
#X floatatom 457 34 5 0 0 0 - - -;
#X obj 323 72 expr $f1*900 + 50;
#X obj 316 -36 t f f;
#X obj 316 -6 *;
#X connect 0 0 59 0;
#X connect 1 0 20 0;
#X connect 2 0 19 0;
#X connect 3 0 27 0;
#X connect 4 0 22 0;
#X connect 5 0 6 0;
#X connect 6 0 4 0;
#X connect 7 0 13 0;
#X connect 8 0 5 1;
#X connect 9 0 6 1;
#X connect 13 0 14 0;
#X connect 14 0 15 0;
#X connect 15 0 2 1;
#X connect 18 0 4 1;
#X connect 19 0 0 0;
#X connect 20 0 10 0;
#X connect 21 0 54 0;
#X connect 22 0 25 0;
#X connect 23 0 2 0;
#X connect 24 0 5 0;
#X connect 25 0 23 0;
#X connect 27 0 26 0;
#X connect 27 0 55 0;
#X connect 28 0 19 1;
#X connect 29 0 36 0;
#X connect 30 0 31 0;
#X connect 31 0 29 0;
#X connect 32 0 33 0;
#X connect 33 0 34 0;
#X connect 34 0 28 1;
#X connect 35 0 29 1;
#X connect 36 0 39 0;
#X connect 37 0 28 0;
#X connect 38 0 30 0;
#X connect 39 0 37 0;
#X connect 40 0 30 1;
#X connect 41 0 31 1;
#X connect 42 0 32 0;
#X connect 44 0 45 0;
#X connect 45 0 1 0;
#X connect 46 0 47 0;
#X connect 47 0 50 0;
#X connect 47 0 54 1;
#X connect 48 0 46 0;
#X connect 50 0 55 0;
#X connect 50 1 55 1;
#X connect 51 0 48 0;
#X connect 54 0 17 0;
#X connect 55 0 21 0;
#X connect 56 0 60 0;
#X connect 58 0 65 0;
#X connect 61 0 3 0;
#X connect 62 0 63 0;
#X connect 62 0 64 0;
#X connect 64 0 3 0;
#X connect 65 0 66 0;
#X connect 65 1 66 1;
#X connect 66 0 62 0;
#X restore 157 319 pd rockafella;
#X obj 195 620 dac~;
#N canvas 2 111 480 336 noise 0;
#X obj 63 136 noise~;
#X floatatom 128 111 5 0 0 0 center_freq - -;
#X floatatom 181 175 5 0 0 0 Q - -;
#X obj 106 212 bp~ 100 10;
#X obj 131 87 hsl 300 15 50 5000 0 0 empty empty empty -2 -8 0 10 -262144
-1 -1 1329 0;
#X obj 131 50 r c_f;
#X obj 175 147 r Q;
#X obj 336 128 r pos;
#X obj 311 276 s c_f;
#X obj 312 229 line;
#X msg 313 202 \$1 300;
#X obj 297 163 expr $f1*600 + 30;
#X connect 0 0 3 0;
#X connect 1 0 3 1;
#X connect 2 0 3 2;
#X connect 4 0 1 0;
#X connect 5 0 4 0;
#X connect 6 0 2 0;
#X connect 7 0 11 0;
#X connect 9 0 8 0;
#X connect 10 0 9 0;
#X connect 11 0 10 0;
#X restore 35 210 pd noise;
#X obj 383 290 r pos;
#X floatatom 377 409 5 0 0 0 - - -;
#X msg 329 319 0.01;
#X msg 292 506 \$1 300;
#X text 30 233 tiramos este som;
#X obj 422 68 r D0;
#X obj 507 73 r D1;
#X floatatom 422 101 5 0 0 0 - - -;
#X floatatom 500 110 5 0 0 0 - - -;
#N canvas 1 112 843 372 som_oscs 0;
#X obj 66 190 osc~;
#X obj 127 223 osc~;
#X obj 48 224 +~;
#X obj 185 156 t b f;
#X obj 88 48 hsl 300 15 50 950 0 0 empty empty empty -2 -8 0 10 -262144
-1 -1 20598 0;
#X obj 216 106 hsl 128 15 0 60 0 0 empty empty empty -2 -8 0 10 -262144
-1 -1 762 1;
#X floatatom 45 89 5 0 0 0 - - -;
#X msg 170 15 239;
#X msg 258 78 0.6;
#X obj 149 188 -;
#X obj 94 16 r osc_f;
#X floatatom 178 128 5 0 0 0 - - -;
#X obj 196 74 r beat;
#X obj 25 180 osc~;
#X obj 112 92 t f f f;
#X obj 174 227 osc~;
#X obj 134 259 +~;
#X obj 80 258 +~;
#X obj 208 202 * 1.25;
#X obj 58 140 * 1.25;
#X obj 53 292 *~ 0.125;
#X obj 345 184 r pos;
#X obj 339 280 s beat;
#X obj 339 258 line;
#X msg 340 231 \$1 300;
#X obj 341 210 expr $f1*9;
#X obj 537 103 r pos;
#X obj 535 205 s osc_f;
#X obj 534 172 line;
#X msg 533 150 \$1 300;
#X obj 533 129 expr $f1*1600 + 30;
#X connect 0 0 2 0;
#X connect 1 0 16 0;
#X connect 2 0 17 0;
#X connect 3 0 9 0;
#X connect 3 1 9 1;
#X connect 4 0 6 0;
#X connect 4 0 14 0;
#X connect 5 0 11 0;
#X connect 5 0 3 0;
#X connect 7 0 4 0;
#X connect 8 0 5 0;
#X connect 9 0 1 0;
#X connect 9 0 18 0;
#X connect 10 0 4 0;
#X connect 12 0 5 0;
#X connect 13 0 2 1;
#X connect 14 0 0 0;
#X connect 14 1 9 0;
#X connect 14 2 19 0;
#X connect 15 0 16 1;
#X connect 16 0 17 1;
#X connect 17 0 20 0;
#X connect 18 0 15 0;
#X connect 19 0 13 0;
#X connect 21 0 25 0;
#X connect 23 0 22 0;
#X connect 24 0 23 0;
#X connect 25 0 24 0;
#X connect 26 0 30 0;
#X connect 28 0 27 0;
#X connect 29 0 28 0;
#X connect 30 0 29 0;
#X restore 37 178 pd som_oscs;
#N canvas 2 125 700 268 instructions 0;
#X text 20 16 D0 e D1 é transformado para dar valores de 0 a 1 correspondentes
a 65cm -> 5cm \, no código Arduino \; D0 ativa o beat com o rockafella
\, D1 ativa os sons extra \; o D0 vem em cm (range de 0 a 60) o D1
já vem cm/2 (ou seja range d 0 a 30) \;;
#X restore 415 27 pd instructions;
#N canvas 74 564 685 446 phasor_osc_modula 0;
#X obj 45 124 phasor~;
#X obj 22 269 cos~;
#X obj 85 375 *~;
#X obj 72 408 dac~;
#X floatatom 32 38 12 0 0 0 - - -;
#X obj 18 233 +~;
#X obj 111 183 osc~;
#X obj 216 176 line~;
#X obj 114 218 *~;
#X obj 314 62 vsl 25 70 0 5 0 0 empty empty empty 0 -9 0 10 -262144
-1 -1 5520 1;
#X text 161 46 modulating freq;
#X text 20 8 carrier freq;
#X obj 189 394 line;
#X obj 312 293 vsl 15 60 0 1 0 0 empty empty empty 0 -9 0 10 -262144
-1 -1 0 1;
#X obj 434 14 r D1;
#X obj 424 258 spigot;
#X obj 430 54 sel 0;
#X msg 324 221 0;
#X obj 553 103 < 20;
#X obj 489 139 spigot;
#X obj 406 392 mtof;
#X obj 460 88 t f f;
#X obj 439 173 t f f;
#X obj 433 293 - 10;
#X obj 498 210 >= 10;
#X obj 436 327 * 10;
#X obj 431 362 + 40;
#X msg 247 363 \$1 100;
#X obj 349 255 * 0.2;
#X msg 145 131 45;
#X obj 44 77 t b f;
#X obj 86 321 vline~;
#X obj 36 334 *~;
#X msg 93 284 1 100 \, 0 500 300;
#X msg 260 75 4;
#X obj 205 13 loadbang;
#X msg 282 146 \$1 200;
#X connect 0 0 5 0;
#X connect 1 0 32 0;
#X connect 2 0 3 1;
#X connect 2 0 3 0;
#X connect 4 0 30 0;
#X connect 5 0 1 0;
#X connect 6 0 8 0;
#X connect 7 0 8 1;
#X connect 8 0 5 1;
#X connect 9 0 36 0;
#X connect 12 0 2 1;
#X connect 13 0 27 0;
#X connect 14 0 16 0;
#X connect 15 0 23 0;
#X connect 16 0 17 0;
#X connect 16 1 21 0;
#X connect 17 0 13 0;
#X connect 18 0 19 1;
#X connect 19 0 22 0;
#X connect 20 0 4 0;
#X connect 21 0 19 0;
#X connect 21 1 18 0;
#X connect 22 0 15 0;
#X connect 22 1 24 0;
#X connect 23 0 25 0;
#X connect 24 0 15 1;
#X connect 24 0 28 0;
#X connect 25 0 26 0;
#X connect 26 0 20 0;
#X connect 27 0 12 0;
#X connect 28 0 13 0;
#X connect 29 0 6 0;
#X connect 30 0 33 0;
#X connect 30 1 0 0;
#X connect 31 0 32 1;
#X connect 32 0 2 0;
#X connect 33 0 31 0;
#X connect 34 0 9 0;
#X connect 35 0 29 0;
#X connect 35 0 34 0;
#X connect 36 0 7 0;
#X restore 595 453 pd phasor_osc_modula;
#N canvas 2 135 552 396 quad 0;
#X obj 31 130 phasor~;
#X obj 49 87 mtof;
#X obj 59 19 hsl 128 15 0 127 0 0 empty empty empty -2 -8 0 10 -262144
-1 -1 0 1;
#X obj 52 300 *~;
#X obj 198 251 vsl 15 60 0 1 0 0 empty empty empty 0 -9 0 10 -262144
-1 -1 0 1;
#X obj 43 345 dac~;
#X obj 40 173 expr~ $v1 > $v2;
#X text 144 89 entre 0 e 1;
#X obj 357 23 r D1;
#X obj 291 173 * 0.2;
#X obj 371 204 spigot;
#X obj 387 117 t f f f;
#X obj 358 257 / 20;
#X obj 303 289 * 127;
#X msg 284 138 0;
#X obj 436 154 < 10;
#X msg 178 118 0.5;
#X obj 183 57 loadbang;
#X obj 35 54 t b f;
#X obj 95 256 vline~;
#X obj 43 241 *~;
#X msg 102 219 1 100 \, 0 500 300;
#X obj 336 75 sel 0;
#X floatatom 473 31 5 0 0 0 - - -;
#X connect 0 0 6 0;
#X connect 1 0 0 0;
#X connect 2 0 18 0;
#X connect 3 0 5 1;
#X connect 3 0 5 0;
#X connect 4 0 3 1;
#X connect 6 0 20 0;
#X connect 8 0 22 0;
#X connect 8 0 23 0;
#X connect 9 0 4 0;
#X connect 10 0 12 0;
#X connect 11 1 10 0;
#X connect 11 2 15 0;
#X connect 12 0 13 0;
#X connect 13 0 2 0;
#X connect 14 0 4 0;
#X connect 15 0 10 1;
#X connect 15 0 9 0;
#X connect 16 0 6 1;
#X connect 17 0 16 0;
#X connect 18 0 21 0;
#X connect 18 1 1 0;
#X connect 19 0 20 1;
#X connect 20 0 3 0;
#X connect 21 0 19 0;
#X connect 22 0 14 0;
#X connect 22 1 11 0;
#X restore 599 571 pd quad;
#N canvas 75 358 644 645 tab_mod 0;
#N canvas 0 50 450 250 (subpatch) 0;
#X array modTab 131 float 1;
#A 0 -0.257143 -0.214285 -0.178571 -0.142856 -0.112499 -0.0821417 -0.0517844
-0.021427 0.0089303 0.0392876 0.069645 0.100002 0.124492 0.148982 0.173472
0.197962 0.222452 0.246942 0.271432 0.304765 0.338099 0.428576 0.452385
0.476195 0.500005 0.571434 0.604767 0.638101 0.671434 0.68572 0.704768
0.442862 0.350004 0.0714307 0.00952554 -0.0523796 -0.228571 -0.3 -0.385715
-0.742857 -0.457144 -0.400001 -0.357143 -0.321429 -0.285714 -0.25 -0.214285
-0.178571 -0.142856 -0.105951 -0.0690464 -0.0321414 0.0047636 0.0416686
0.0785736 0.115479 0.152384 0.189289 0.226194 0.263099 0.300004 0.392861
0.485719 0.504767 0.523814 0.557148 0.58572 0.571434 0.557148 0.535719
0.514291 0.492862 0.471433 0.400004 0.342861 0.285718 0.235717 0.185717
0.128574 0.0714307 -0.0285699 -0.142856 -0.192857 -0.328572 -0.428572
-0.557145 -0.47143 -0.435715 -0.400001 -0.359524 -0.319048 -0.278571
-0.238095 -0.197619 -0.157142 -0.107142 -0.0571415 -0.00714123 0.0428591
0.0928594 0.14286 0.314289 0.339289 0.36429 0.38929 0.41429 0.485719
0.542862 0.571434 0.600005 0.600005 0.571434 0.542862 0.485719 0.435719
0.385718 0.0428591 -0.021427 -0.0857131 -0.157142 -0.257143 -0.2 -0.164285
-0.128571 1.66893e-06 0.0428591 0.0642878 0.128574 0.14286 0.14286
0.0857139;
#X coords 0 1 130 -1 200 140 1;
#X restore 147 455 graph;
#X obj 91 104 mtof;
#X obj 66 23 hsl 128 15 0 127 0 0 empty empty empty -2 -8 0 10 -262144
-1 -1 0 0;
#X obj 48 147 tabosc4~ modTab;
#X obj 57 432 dac~;
#X obj 88 306 vline~;
#X obj 52 341 *~;
#X obj 77 53 t b f;
#X floatatom 8 62 5 0 0 0 - - -;
#X obj 239 406 line;
#X obj 304 286 vsl 15 60 0 1 0 0 empty empty empty 0 -9 0 10 -262144
-1 -1 0 1;
#X obj 482 10 r D1;
#X obj 483 242 spigot;
#X obj 461 54 sel 0;
#X msg 337 193 0;
#X obj 516 144 spigot;
#X obj 510 85 t f f;
#X obj 455 172 t f f;
#X obj 570 114 < 30;
#X obj 520 201 >= 20;
#X obj 483 276 - 20;
#X obj 480 309 * 2;
#X obj 489 343 + 60;
#X msg 268 365 \$1 30;
#X obj 67 385 *~;
#X text 366 453 this table gives a similar to harp~~;
#X obj 365 234 * 1;
#X text 28 211 ramp to 1 in 100 \; down to 0 acfter 500 in 1000;
#X msg 95 269 1 100 \, 0 1000 10;
#X connect 1 0 3 0;
#X connect 2 0 7 0;
#X connect 2 0 8 0;
#X connect 3 0 6 0;
#X connect 5 0 6 1;
#X connect 6 0 24 0;
#X connect 7 0 28 0;
#X connect 7 1 1 0;
#X connect 9 0 24 1;
#X connect 10 0 23 0;
#X connect 11 0 13 0;
#X connect 12 0 20 0;
#X connect 13 0 14 0;
#X connect 13 1 16 0;
#X connect 14 0 10 0;
#X connect 15 0 17 0;
#X connect 16 0 15 0;
#X connect 16 1 18 0;
#X connect 17 0 12 0;
#X connect 17 1 19 0;
#X connect 18 0 15 1;
#X connect 19 0 12 1;
#X connect 19 0 26 0;
#X connect 20 0 21 0;
#X connect 21 0 22 0;
#X connect 22 0 2 0;
#X connect 23 0 9 0;
#X connect 24 0 4 0;
#X connect 24 0 4 1;
#X connect 26 0 10 0;
#X connect 28 0 5 0;
#X restore 597 515 pd tab_mod;
#N canvas 26 428 354 217 rec_dist_fake 1;
#X obj 61 50 hsl 128 15 0 127 0 0 empty empty empty -2 -8 0 10 -262144
-1 -1 3600 1;
#X obj 135 93 hsl 128 15 0 127 0 0 empty empty empty -2 -8 0 10 -262144
-1 -1 0 1;
#X obj 71 120 s D0;
#X obj 131 125 s D1;
#X floatatom 209 130 5 0 0 0 - - -;
#X connect 0 0 2 0;
#X connect 1 0 3 0;
#X connect 1 0 4 0;
#X restore 247 217 pd rec_dist_fake;
#X obj 164 365 *~ 0.8;
#X msg 276 25 \; pos 0.01 \; beat 0.1 \; osc_f 108 \; Q 1 \; c_f 116
\; pd dsp 1 \; connect bang \;;
#X obj 378 372 > 0.02;
#X text 500 453 longe;
#X text 504 573 perto;
#X text 511 520 meio;
#X connect 0 0 8 0;
#X connect 0 0 18 0;
#X connect 0 0 18 1;
#X connect 1 0 23 0;
#X connect 1 0 11 0;
#X connect 3 0 2 0;
#X connect 4 0 0 0;
#X connect 5 0 0 1;
#X connect 6 0 36 0;
#X connect 8 0 10 0;
#X connect 10 0 9 0;
#X connect 12 0 13 0;
#X connect 12 0 14 0;
#X connect 15 0 12 0;
#X connect 17 0 35 0;
#X connect 20 0 16 0;
#X connect 20 0 37 0;
#X connect 22 0 37 0;
#X connect 23 0 5 0;
#X connect 25 0 27 0;
#X connect 26 0 28 0;
#X connect 35 0 4 0;
#X connect 37 0 21 0;
#X connect 37 0 1 0;
