#N canvas 309 164 906 789 10;
#X obj 99 195 noise~;
#X floatatom 164 170 5 0 0 0 center_freq - -, f 5;
#X floatatom 217 234 5 0 0 0 Q - -, f 5;
#X obj 211 744 dac~;
#X obj 217 711 *~;
#X obj 280 643 vsl 15 70 0 1 0 0 empty empty vol 0 -9 0 10 -262144
-1 -1 4140 1;
#X msg 32 52 \; pd dsp \$1;
#X obj 32 27 tgl 15 0 empty empty empty 17 7 0 10 -262144 -1 -1 0 1
;
#X obj 142 271 bp~ 100 10;
#X obj 167 146 hsl 300 15 50 950 0 0 empty empty empty -2 -8 0 10 -262144
-1 -1 200 0;
#X obj 167 601 +~;
#X obj 256 450 osc~;
#X obj 317 483 osc~;
#X obj 238 484 +~;
#X obj 375 416 t b f;
#X obj 277 743 line~;
#X msg 284 722 \$1 100;
#X obj 278 308 hsl 300 15 50 950 0 0 empty empty empty -2 -8 0 10 -262144
-1 -1 200 0;
#X obj 406 366 hsl 128 15 0 60 0 0 empty empty empty -2 -8 0 10 -262144
-1 -1 19 1;
#X floatatom 235 349 5 0 0 0 - - -, f 5;
#X msg 360 275 239;
#X msg 448 338 0.6;
#X obj 339 448 -;
#X obj 188 35 loadbang;
#N canvas 95 544 282 364 receive_dist 1;
#X obj 34 77 comport;
#X msg 29 25 devices;
#X obj 35 99 serial_print;
#X floatatom 59 132 5 0 0 0 - - -, f 5;
#X msg 54 55 open 2;
#X obj 69 203 s D;
#X obj 154 60 r D;
#X obj 155 89 / 60;
#X obj 145 198 s pos-r;
#X obj 163 25 loadbang;
#X obj 146 169 line;
#X msg 147 142 \$1 300;
#X obj 145 115 expr 1-$f1;
#X obj 25 153 sel 0;
#X msg 17 176 0.01;
#X connect 0 0 2 0;
#X connect 1 0 0 0;
#X connect 2 0 3 0;
#X connect 2 0 13 0;
#X connect 4 0 0 0;
#X connect 6 0 7 0;
#X connect 7 0 12 0;
#X connect 9 0 4 0;
#X connect 10 0 8 0;
#X connect 11 0 10 0;
#X connect 12 0 11 0;
#X connect 13 0 14 0;
#X connect 13 1 5 0;
#X connect 14 0 8 0;
#X restore 21 98 pd receive_dist;
#X obj 166 120 r c_f;
#X text 756 15 low= \; beat 0.5 \; osc_f 239 \; Q 1 \; c_f 116 \; High
\;;
#X obj 284 276 r osc_f;
#X obj 211 206 r Q;
#X floatatom 368 388 5 0 0 0 - - -, f 5;
#X obj 386 334 r beat;
#X obj 155 518 *~ 0.5;
#X obj 165 727 env~;
#X obj 92 635 vu 15 120 empty empty -1 -8 0 10 -66577 -1 1 0;
#X obj 154 758 - 100;
#X floatatom 335 666 5 0 0 0 - - -, f 5;
#X msg 252 208 0.5;
#X obj 681 141 vsl 15 250 0.01 1 1 0 empty pos-r pos_da_mao 0 -9 0
10 -262144 -1 -1 0 1;
#X obj 681 408 s pos;
#X obj 677 448 r pos;
#X obj 536 561 s c_f;
#X obj 677 533 r pos;
#X obj 674 650 r pos;
#X obj 667 621 s osc_f;
#X obj 668 746 s beat;
#X text 384 -11 por botão on/off \; fazer a posiçao da mão logaritmica
para chegar ao topo mas devagar;
#X floatatom 774 364 12 0 0 0 - - -, f 12;
#X floatatom 742 171 5 0 0 0 - - -, f 5;
#X obj 668 724 line;
#X msg 669 697 \$1 300;
#X obj 674 602 line;
#X msg 673 580 \$1 300;
#X obj 558 534 line;
#X msg 559 507 \$1 300;
#X obj 331 623 r vol;
#X obj 673 474 expr $f1*600 + 50;
#X obj 673 559 expr $f1*600 + 50;
#X obj 215 440 osc~;
#X obj 302 352 t f f f;
#X obj 364 487 osc~;
#X obj 324 519 +~;
#X obj 270 518 +~;
#X obj 398 462 * 1.25;
#X obj 248 400 * 1.25;
#X msg 254 29 \; pos 0.01 \; beat 0.1 \; osc_f 108 \; Q 1 \; c_f 116
\; pd dsp 1 \; vol 0.6 \;;
#X obj 670 676 expr $f1*9;
#X obj 243 552 *~ 0.125;
#X connect 0 0 8 0;
#X connect 1 0 8 1;
#X connect 2 0 8 2;
#X connect 4 0 3 0;
#X connect 4 0 3 1;
#X connect 4 0 32 0;
#X connect 5 0 16 0;
#X connect 5 0 35 0;
#X connect 7 0 6 0;
#X connect 8 0 31 0;
#X connect 9 0 1 0;
#X connect 10 0 4 0;
#X connect 11 0 13 0;
#X connect 12 0 60 0;
#X connect 13 0 61 0;
#X connect 14 0 22 0;
#X connect 14 1 22 1;
#X connect 15 0 4 1;
#X connect 16 0 15 0;
#X connect 17 0 19 0;
#X connect 17 0 58 0;
#X connect 18 0 29 0;
#X connect 18 0 14 0;
#X connect 20 0 17 0;
#X connect 21 0 18 0;
#X connect 22 0 12 0;
#X connect 22 0 62 0;
#X connect 23 0 64 0;
#X connect 25 0 9 0;
#X connect 27 0 17 0;
#X connect 28 0 2 0;
#X connect 30 0 18 0;
#X connect 31 0 10 0;
#X connect 32 0 34 0;
#X connect 34 0 33 0;
#X connect 36 0 2 0;
#X connect 37 0 38 0;
#X connect 37 0 46 0;
#X connect 39 0 55 0;
#X connect 41 0 56 0;
#X connect 42 0 65 0;
#X connect 47 0 37 0;
#X connect 48 0 44 0;
#X connect 49 0 48 0;
#X connect 50 0 43 0;
#X connect 51 0 50 0;
#X connect 52 0 40 0;
#X connect 53 0 52 0;
#X connect 54 0 5 0;
#X connect 55 0 53 0;
#X connect 56 0 51 0;
#X connect 57 0 13 1;
#X connect 58 0 11 0;
#X connect 58 1 22 0;
#X connect 58 2 63 0;
#X connect 59 0 60 1;
#X connect 60 0 61 1;
#X connect 61 0 66 0;
#X connect 62 0 59 0;
#X connect 63 0 57 0;
#X connect 65 0 49 0;
#X connect 66 0 10 1;
