#N canvas 426 166 659 476 10;
#X obj 55 86 phasor~;
#X obj 56 231 cos~;
#X obj 85 385 *~;
#X obj 72 418 dac~;
#X floatatom 56 41 5 0 0 0 - - -;
#X obj 55 193 +~;
#X obj 181 109 osc~;
#X floatatom 185 52 5 0 0 0 - - -;
#X obj 261 91 line~;
#X obj 263 63 pack f 20;
#X obj 184 144 *~;
#X obj 338 22 vsl 25 70 0 5 0 0 empty empty empty 0 -9 0 10 -262144
-1 -1 900 1;
#X msg 97 52 100;
#X msg 148 42 50;
#X text 196 25 modulating freq;
#X text 20 18 carrier freq;
#X obj 136 381 line;
#X obj 259 273 vsl 15 60 0 1 0 0 empty empty empty 0 -9 0 10 -262144
-1 -1 0 1;
#X obj 432 69 r D1;
#X obj 446 250 spigot;
#X floatatom 542 254 5 0 0 0 - - -;
#X floatatom 479 67 5 0 0 0 - - -;
#X obj 438 94 sel 0;
#X msg 291 221 0;
#X obj 579 148 < 20;
#X obj 520 162 spigot;
#X obj 407 389 mtof;
#X obj 460 122 t f f;
#X obj 437 194 t f f;
#X floatatom 577 199 5 0 0 0 - - -;
#X floatatom 381 217 5 0 0 0 - - -;
#X obj 433 303 - 10;
#X obj 498 220 >= 10;
#X obj 436 337 * 10;
#X floatatom 488 305 5 0 0 0 - - -;
#X obj 423 363 + 40;
#X msg 178 345 \$1 100;
#X obj 312 248 * 0.2;
#X connect 0 0 5 0;
#X connect 1 0 2 0;
#X connect 2 0 3 1;
#X connect 2 0 3 0;
#X connect 4 0 0 0;
#X connect 5 0 1 0;
#X connect 6 0 10 0;
#X connect 7 0 6 0;
#X connect 8 0 10 1;
#X connect 9 0 8 0;
#X connect 10 0 5 1;
#X connect 11 0 9 0;
#X connect 12 0 4 0;
#X connect 13 0 7 0;
#X connect 16 0 2 1;
#X connect 17 0 36 0;
#X connect 18 0 21 0;
#X connect 18 0 22 0;
#X connect 19 0 31 0;
#X connect 20 0 37 0;
#X connect 22 0 23 0;
#X connect 22 1 27 0;
#X connect 23 0 17 0;
#X connect 24 0 25 1;
#X connect 25 0 28 0;
#X connect 25 0 29 0;
#X connect 26 0 4 0;
#X connect 27 0 25 0;
#X connect 27 1 24 0;
#X connect 28 0 19 0;
#X connect 28 0 30 0;
#X connect 28 1 32 0;
#X connect 31 0 33 0;
#X connect 31 0 34 0;
#X connect 32 0 19 1;
#X connect 32 0 20 0;
#X connect 33 0 35 0;
#X connect 35 0 26 0;
#X connect 36 0 16 0;
#X connect 37 0 17 0;
